{
  "accessors": [
    {
      "bufferView": 1,
      "componentType": 5126,
      "count": 556,
      "max": [
        19.0,
        32.0,
        10.0
      ],
      "min": [
        -19.0,
        -12.0,
        -10.0
      ],
      "type": "VEC3"
    },
    {
      "bufferView": 1,
      "byteOffset": 6672,
      "componentType": 5126,
      "count": 556,
      "max": [
        1.0,
        1.0,
        1.0
      ],
      "min": [
        -1.0,
        -1.0,
        -1.0
      ],
      "type": "VEC3"
    },
    {
      "bufferView": 0,
      "componentType": 5125,
      "count": 1521,
      "type": "SCALAR"
    },
    {
      "bufferView": 1,
      "byteOffset": 13344,
      "componentType": 5126,
      "count": 369,
      "max": [
        14.25,
        32.0,
        10.0
      ],
      "min": [
        -14.0,
        -12.0,
        4.243000030517578
      ],
      "type": "VEC3"
    },
    {
      "bufferView": 1,
      "byteOffset": 17772,
      "componentType": 5126,
      "count": 369,
      "max": [
        0.5556198358535767,
        0.0,
        1.0
      ],
      "min": [
        -0.5556198358535767,
        0.0,
        0.8314365148544312
      ],
      "type": "VEC3"
    },
    {
      "bufferView": 0,
      "byteOffset": 6084,
      "componentType": 5125,
      "count": 1257,
      "type": "SCALAR"
    },
    {
      "bufferView": 1,
      "byteOffset": 22200,
      "componentType": 5126,
      "count": 69,
      "max": [
        6.0,
        12.25,
        10.0
      ],
      "min": [
        -6.699999809265137,
        1.5,
        10.0
      ],
      "type": "VEC3"
    },
    {
      "bufferView": 1,
      "byteOffset": 23028,
      "componentType": 5126,
      "count": 69,
      "max": [
        0.0,
        0.0,
        1.0
      ],
      "min": [
        0.0,
        0.0,
        1.0
      ],
      "type": "VEC3"
    },
    {
      "bufferView": 0,
      "byteOffset": 11112,
      "componentType": 5125,
      "count": 162,
      "type": "SCALAR"
    },
    {
      "bufferView": 1,
      "byteOffset": 23856,
      "componentType": 5126,
      "count": 133,
      "max": [
        1.5,
        32.0,
        10.0
      ],
      "min": [
        -1.5,
        9.75,
        10.0
      ],
      "type": "VEC3"
    },
    {
      "bufferView": 1,
      "byteOffset": 25452,
      "componentType": 5126,
      "count": 133,
      "max": [
        0.0,
        0.0,
        1.0
      ],
      "min": [
        0.0,
        0.0,
        1.0
      ],
      "type": "VEC3"
    },
    {
      "bufferView": 0,
      "byteOffset": 11760,
      "componentType": 5125,
      "count": 321,
      "type": "SCALAR"
    },
    {
      "bufferView": 1,
      "byteOffset": 27048,
      "componentType": 5126,
      "count": 40,
      "max": [
        17.75,
        28.75,
        10.0
      ],
      "min": [
        -17.75,
        12.0,
        10.0
      ],
      "type": "VEC3"
    },
    {
      "bufferView": 1,
      "byteOffset": 27528,
      "componentType": 5126,
      "count": 40,
      "max": [
        0.0,
        0.0,
        1.0
      ],
      "min": [
        0.0,
        0.0,
        1.0
      ],
      "type": "VEC3"
    },
    {
      "bufferView": 0,
      "byteOffset": 13044,
      "componentType": 5125,
      "count": 78,
      "type": "SCALAR"
    },
    {
      "bufferView": 1,
      "byteOffset": 28008,
      "componentType": 5126,
      "count": 558,
      "max": [
        17.000429153442383,
        6.0,
        22.00023078918457
      ],
      "min": [
        -17.000429153442383,
        -11.0,
        -17.000429153442383
      ],
      "type": "VEC3"
    },
    {
      "bufferView": 1,
      "byteOffset": 34704,
      "componentType": 5126,
      "count": 558,
      "max": [
        0.9978122115135193,
        1.0,
        0.9978105425834656
      ],
      "min": [
        -0.9978105425834656,
        -1.0,
        -0.9978105425834656
      ],
      "type": "VEC3"
    },
    {
      "bufferView": 0,
      "byteOffset": 13356,
      "componentType": 5125,
      "count": 1542,
      "type": "SCALAR"
    },
    {
      "bufferView": 1,
      "byteOffset": 41400,
      "componentType": 5126,
      "count": 576,
      "max": [
        13.0,
        24.0,
        13.0
      ],
      "min": [
        -13.0,
        -4.0,
        -13.0
      ],
      "type": "VEC3"
    },
    {
      "bufferView": 1,
      "byteOffset": 48312,
      "componentType": 5126,
      "count": 576,
      "max": [
        0.9978105425834656,
        1.0,
        1.0
      ],
      "min": [
        -0.9978105425834656,
        -1.0,
        -0.9978105425834656
      ],
      "type": "VEC3"
    },
    {
      "bufferView": 0,
      "byteOffset": 19524,
      "componentType": 5125,
      "count": 2184,
      "type": "SCALAR"
    },
    {
      "bufferView": 1,
      "byteOffset": 55224,
      "componentType": 5126,
      "count": 260,
      "max": [
        7.204999923706055,
        16.441999435424805,
        13.0
      ],
      "min": [
        -7.204999923706055,
        5.1020002365112305,
        10.520000457763672
      ],
      "type": "VEC3"
    },
    {
      "bufferView": 1,
      "byteOffset": 58344,
      "componentType": 5126,
      "count": 260,
      "max": [
        0.5596097707748413,
        0.003336810041218996,
        1.0
      ],
      "min": [
        -0.5577492713928223,
        -0.005715485196560621,
        0.8287543058395386
      ],
      "type": "VEC3"
    },
    {
      "bufferView": 0,
      "byteOffset": 28260,
      "componentType": 5125,
      "count": 804,
      "type": "SCALAR"
    },
    {
      "bufferView": 1,
      "byteOffset": 61464,
      "componentType": 5126,
      "count": 74,
      "max": [
        4.559999942779541,
        9.510000228881836,
        12.392000198364258
      ],
      "min": [
        -4.559999942779541,
        8.010000228881836,
        12.093000411987305
      ],
      "type": "VEC3"
    },
    {
      "bufferView": 1,
      "byteOffset": 62352,
      "componentType": 5126,
      "count": 74,
      "max": [
        0.20960159599781036,
        0.009847687557339668,
        0.9838725924491882
      ],
      "min": [
        -0.2096012979745865,
        -0.009847982786595821,
        0.977737307548523
      ],
      "type": "VEC3"
    },
    {
      "bufferView": 0,
      "byteOffset": 31476,
      "componentType": 5125,
      "count": 216,
      "type": "SCALAR"
    },
    {
      "bufferView": 1,
      "byteOffset": 63240,
      "componentType": 5126,
      "count": 412,
      "max": [
        10.0,
        22.43600082397461,
        13.435999870300293
      ],
      "min": [
        -7.0,
        -6.5,
        -6.506999969482422
      ],
      "type": "VEC3"
    },
    {
      "bufferView": 1,
      "byteOffset": 68184,
      "componentType": 5126,
      "count": 412,
      "max": [
        0.9998326897621155,
        0.9978104829788208,
        0.9978104829788208
      ],
      "min": [
        -1.0,
        -0.9978104829788208,
        -1.0
      ],
      "type": "VEC3"
    },
    {
      "bufferView": 0,
      "byteOffset": 32340,
      "componentType": 5125,
      "count": 1482,
      "type": "SCALAR"
    },
    {
      "bufferView": 1,
      "byteOffset": 73128,
      "componentType": 5126,
      "count": 412,
      "max": [
        7.0,
        22.43600082397461,
        13.435999870300293
      ],
      "min": [
        -10.0,
        -6.5,
        -6.506999969482422
      ],
      "type": "VEC3"
    },
    {
      "bufferView": 1,
      "byteOffset": 78072,
      "componentType": 5126,
      "count": 412,
      "max": [
        1.0,
        0.9978104829788208,
        0.9978104829788208
      ],
      "min": [
        -0.9998326897621155,
        -0.9978104829788208,
        -1.0
      ],
      "type": "VEC3"
    },
    {
      "bufferView": 0,
      "byteOffset": 38268,
      "componentType": 5125,
      "count": 1482,
      "type": "SCALAR"
    },
    {
      "bufferView": 1,
      "byteOffset": 83016,
      "componentType": 5126,
      "count": 290,
      "max": [
        6.0,
        4.612800121307373,
        15.517840385437012
      ],
      "min": [
        -6.0,
        -7.650199890136719,
        -13.0
      ],
      "type": "VEC3"
    },
    {
      "bufferView": 1,
      "byteOffset": 86496,
      "componentType": 5126,
      "count": 290,
      "max": [
        1.0,
        1.0,
        0.9983903169631958
      ],
      "min": [
        -1.0,
        -0.9978105425834656,
        -1.0
      ],
      "type": "VEC3"
    },
    {
      "bufferView": 0,
      "byteOffset": 44196,
      "componentType": 5125,
      "count": 822,
      "type": "SCALAR"
    },
    {
      "bufferView": 1,
      "byteOffset": 89976,
      "componentType": 5126,
      "count": 290,
      "max": [
        6.0,
        4.612800121307373,
        15.517840385437012
      ],
      "min": [
        -6.0,
        -7.650199890136719,
        -13.0
      ],
      "type": "VEC3"
    },
    {
      "bufferView": 1,
      "byteOffset": 93456,
      "componentType": 5126,
      "count": 290,
      "max": [
        1.0,
        1.0,
        0.9983903169631958
      ],
      "min": [
        -1.0,
        -0.9978105425834656,
        -1.0
      ],
      "type": "VEC3"
    },
    {
      "bufferView": 0,
      "byteOffset": 47484,
      "componentType": 5125,
      "count": 822,
      "type": "SCALAR"
    },
    {
      "bufferView": 1,
      "byteOffset": 96936,
      "componentType": 5126,
      "count": 378,
      "max": [
        18.0,
        21.00019073486328,
        10.0
      ],
      "min": [
        -18.0,
        -11.0,
        -10.0
      ],
      "type": "VEC3"
    },
    {
      "bufferView": 1,
      "byteOffset": 101472,
      "componentType": 5126,
      "count": 378,
      "max": [
        1.0,
        1.0,
        1.0
      ],
      "min": [
        -1.0,
        -1.0,
        -1.0
      ],
      "type": "VEC3"
    },
    {
      "bufferView": 0,
      "byteOffset": 50772,
      "componentType": 5125,
      "count": 948,
      "type": "SCALAR"
    },
    {
      "bufferView": 1,
      "byteOffset": 106008,
      "componentType": 5126,
      "count": 400,
      "max": [
        -1.5,
        28.0,
        11.0
      ],
      "min": [
        -19.5,
        -9.0,
        -9.0
      ],
      "type": "VEC3"
    },
    {
      "bufferView": 1,
      "byteOffset": 110808,
      "componentType": 5126,
      "count": 400,
      "max": [
        1.0,
        1.0,
        1.0
      ],
      "min": [
        -1.0,
        -1.0,
        -1.0
      ],
      "type": "VEC3"
    },
    {
      "bufferView": 0,
      "byteOffset": 54564,
      "componentType": 5125,
      "count": 1122,
      "type": "SCALAR"
    },
    {
      "bufferView": 1,
      "byteOffset": 115608,
      "componentType": 5126,
      "count": 400,
      "max": [
        19.5,
        28.0,
        11.0
      ],
      "min": [
        1.5,
        -9.0,
        -9.0
      ],
      "type": "VEC3"
    },
    {
      "bufferView": 1,
      "byteOffset": 120408,
      "componentType": 5126,
      "count": 400,
      "max": [
        1.0,
        1.0,
        1.0
      ],
      "min": [
        -1.0,
        -1.0,
        -1.0
      ],
      "type": "VEC3"
    },
    {
      "bufferView": 0,
      "byteOffset": 59052,
      "componentType": 5125,
      "count": 1122,
      "type": "SCALAR"
    }
  ],
  "asset": {
    "extras": {
      "author": "uzzi47 (https://sketchfab.com/uzzi47)",
      "license": "CC-BY-4.0 (http://creativecommons.org/licenses/by/4.0/)",
      "source": "https://sketchfab.com/3d-models/lego-construction-worker-838671d5e07a419b97ac66fcf289032e",
      "title": "Lego Construction worker"
    },
    "generator": "Sketchfab-16.14.0",
    "version": "2.0"
  },
  "bufferViews": [
    {
      "buffer": 0,
      "byteLength": 63540,
      "name": "floatBufferViews",
      "target": 34963
    },
    {
      "buffer": 0,
      "byteLength": 125208,
      "byteOffset": 63540,
      "byteStride": 12,
      "name": "floatBufferViews",
      "target": 34962
    }
  ],
  "buffers": [
    {
      "byteLength": 188748,
      "uri": "scene.bin"
    }
  ],
  "materials": [
    {
      "doubleSided": true,
      "name": "SOLID-ORANGE",
      "pbrMetallicRoughness": {
        "baseColorFactor": [
          0.992157,
          0.537255,
          0.0901961,
          1.0
        ],
        "metallicFactor": 0,
        "roughnessFactor": 0.6636414338985142
      }
    },
    {
      "doubleSided": true,
      "name": "SOLID-BLACK",
      "pbrMetallicRoughness": {
        "baseColorFactor": [
          0.0156863,
          0.0705882,
          0.109804,
          1.0
        ],
        "metallicFactor": 0,
        "roughnessFactor": 0.6636414338985142
      }
    },
    {
      "doubleSided": true,
      "name": "SOLID-BLUE",
      "pbrMetallicRoughness": {
        "baseColorFactor": [
          0.0,
          0.329412,
          0.745098,
          1.0
        ],
        "metallicFactor": 0,
        "roughnessFactor": 0.6636414338985142
      }
    },
    {
      "doubleSided": true,
      "name": "SOLID-WHITE",
      "pbrMetallicRoughness": {
        "baseColorFactor": [
          0.996078,
          0.996078,
          0.996078,
          1.0
        ],
        "metallicFactor": 0,
        "roughnessFactor": 0.6636414338985142
      }
    },
    {
      "doubleSided": true,
      "name": "METAL-SILVER",
      "pbrMetallicRoughness": {
        "baseColorFactor": [
          0.643137,
          0.658824,
          0.701961,
          1.0
        ],
        "metallicFactor": 0,
        "roughnessFactor": 0.6636414338985142
      }
    },
    {
      "doubleSided": true,
      "name": "SOLID-RED",
      "pbrMetallicRoughness": {
        "baseColorFactor": [
          0.784314,
          0.0980392,
          0.0313725,
          1.0
        ],
        "metallicFactor": 0,
        "roughnessFactor": 0.6636414338985142
      }
    },
    {
      "doubleSided": true,
      "name": "SOLID-YELLOW",
      "pbrMetallicRoughness": {
        "baseColorFactor": [
          0.945098,
          0.8,
          0.211765,
          1.0
        ],
        "metallicFactor": 0,
        "roughnessFactor": 0.6636414338985142
      }
    },
    {
      "doubleSided": true,
      "name": "SOLID-DARK_BLUE",
      "pbrMetallicRoughness": {
        "baseColorFactor": [
          0.04705880000000003,
          0.19215700000000013,
          0.35294099999999995,
          1.0
        ],
        "metallicFactor": 0,
        "roughnessFactor": 0.6636414338985142
      }
    }
  ],
  "meshes": [
    {
      "name": "Base",
      "primitives": [
        {
          "attributes": {
            "NORMAL": 1,
            "POSITION": 0
          },
          "indices": 2,
          "material": 0,
          "mode": 4
        }
      ]
    },
    {
      "name": "sym_11",
      "primitives": [
        {
          "attributes": {
            "NORMAL": 4,
            "POSITION": 3
          },
          "indices": 5,
          "material": 1,
          "mode": 4
        }
      ]
    },
    {
      "name": "sym_7",
      "primitives": [
        {
          "attributes": {
            "NORMAL": 7,
            "POSITION": 6
          },
          "indices": 8,
          "material": 2,
          "mode": 4
        }
      ]
    },
    {
      "name": "sym_1",
      "primitives": [
        {
          "attributes": {
            "NORMAL": 10,
            "POSITION": 9
          },
          "indices": 11,
          "material": 3,
          "mode": 4
        }
      ]
    },
    {
      "name": "sym_67",
      "primitives": [
        {
          "attributes": {
            "NORMAL": 13,
            "POSITION": 12
          },
          "indices": 14,
          "material": 4,
          "mode": 4
        }
      ]
    },
    {
      "name": "Base",
      "primitives": [
        {
          "attributes": {
            "NORMAL": 16,
            "POSITION": 15
          },
          "indices": 17,
          "material": 5,
          "mode": 4
        }
      ]
    },
    {
      "name": "Base",
      "primitives": [
        {
          "attributes": {
            "NORMAL": 19,
            "POSITION": 18
          },
          "indices": 20,
          "material": 6,
          "mode": 4
        }
      ]
    },
    {
      "name": "sym_11",
      "primitives": [
        {
          "attributes": {
            "NORMAL": 22,
            "POSITION": 21
          },
          "indices": 23,
          "material": 1,
          "mode": 4
        }
      ]
    },
    {
      "name": "sym_1",
      "primitives": [
        {
          "attributes": {
            "NORMAL": 25,
            "POSITION": 24
          },
          "indices": 26,
          "material": 3,
          "mode": 4
        }
      ]
    },
    {
      "name": "Base",
      "primitives": [
        {
          "attributes": {
            "NORMAL": 28,
            "POSITION": 27
          },
          "indices": 29,
          "material": 7,
          "mode": 4
        }
      ]
    },
    {
      "name": "Base",
      "primitives": [
        {
          "attributes": {
            "NORMAL": 31,
            "POSITION": 30
          },
          "indices": 32,
          "material": 7,
          "mode": 4
        }
      ]
    },
    {
      "name": "Base",
      "primitives": [
        {
          "attributes": {
            "NORMAL": 34,
            "POSITION": 33
          },
          "indices": 35,
          "material": 6,
          "mode": 4
        }
      ]
    },
    {
      "name": "Base",
      "primitives": [
        {
          "attributes": {
            "NORMAL": 37,
            "POSITION": 36
          },
          "indices": 38,
          "material": 6,
          "mode": 4
        }
      ]
    },
    {
      "name": "Base",
      "primitives": [
        {
          "attributes": {
            "NORMAL": 40,
            "POSITION": 39
          },
          "indices": 41,
          "material": 7,
          "mode": 4
        }
      ]
    },
    {
      "name": "Base",
      "primitives": [
        {
          "attributes": {
            "NORMAL": 43,
            "POSITION": 42
          },
          "indices": 44,
          "material": 7,
          "mode": 4
        }
      ]
    },
    {
      "name": "Base",
      "primitives": [
        {
          "attributes": {
            "NORMAL": 46,
            "POSITION": 45
          },
          "indices": 47,
          "material": 7,
          "mode": 4
        }
      ]
    }
  ],
  "nodes": [
    {
      "children": [
        1
      ],
      "matrix": [
        1.0,
        0.0,
        0.0,
        0.0,
        0.0,
        2.220446049250313e-16,
        -1.0,
        0.0,
        0.0,
        1.0,
        2.220446049250313e-16,
        0.0,
        0.0,
        0.0,
        0.0,
        1.0
      ],
      "name": "Sketchfab_model"
    },
    {
      "children": [
        2,
        4,
        6,
        8
      ],
      "matrix": [
        1.0,
        0.0,
        0.0,
        0.0,
        0.0,
        -4.371139006309477e-08,
        0.999999999999999,
        0.0,
        0.0,
        -0.999999999999999,
        -4.371139006309477e-08,
        0.0,
        0.0,
        0.0,
        0.0,
        1.0
      ],
      "name": "Collada visual scene group"
    },
    {
      "children": [
        3
      ],
      "matrix": [
        0.913545251,
        3.73460352e-07,
        0.406737179,
        0.0,
        0.0220456086,
        0.99853003,
        -0.0495160893,
        0.0,
        -0.406139284,
        0.0542019531,
        0.912202299,
        0.0,
        -205.718018,
        43.2533531,
        492.199768,
        1.0
      ],
      "name": "Light_Node_2"
    },
    {
      "name": "light_id_1"
    },
    {
      "children": [
        5
      ],
      "matrix": [
        0.913545251,
        3.73460352e-07,
        0.406737179,
        0.0,
        0.0220456086,
        0.99853003,
        -0.0495160893,
        0.0,
        -0.406139284,
        0.0542019531,
        0.912202299,
        0.0,
        -205.718018,
        43.2533531,
        492.199768,
        1.0
      ],
      "name": "Light_Node_1"
    },
    {
      "name": "light_id_0"
    },
    {
      "children": [
        7
      ],
      "matrix": [
        0.913545251,
        3.73460352e-07,
        0.406737179,
        0.0,
        0.0220456086,
        0.99853003,
        -0.0495160893,
        0.0,
        -0.406139284,
        0.0542019531,
        0.912202299,
        0.0,
        -205.718018,
        43.2533531,
        492.199768,
        1.0
      ],
      "name": "Camera_Node"
    },
    {
      "name": "camera_id_main"
    },
    {
      "children": [
        9
      ],
      "matrix": [
        1.0,
        0.0,
        0.0,
        0.0,
        0.0,
        -1.0,
        0.0,
        0.0,
        0.0,
        0.0,
        1.0,
        0.0,
        0.0,
        0.0,
        0.0,
        1.0
      ],
      "name": "Model"
    },
    {
      "children": [
        10,
        17,
        20,
        25,
        28,
        31,
        34,
        37
      ],
      "name": "UntitledModel_dot_io"
    },
    {
      "children": [
        11
      ],
      "name": "973p8g_dot_dat"
    },
    {
      "children": [
        12,
        13,
        14,
        15,
        16
      ],
      "matrix": [
        0.993421018,
        0.0,
        0.0,
        0.0,
        0.0,
        0.994318008,
        0.0,
        0.0,
        0.0,
        0.0,
        0.987500012,
        0.0,
        -20.0,
        -31.943182,
        30.0,
        1.0
      ],
      "name": "Inner-Node-UntitledModel_dot_io-0"
    },
    {
      "mesh": 0,
      "name": "Base"
    },
    {
      "mesh": 1,
      "name": "sym_11"
    },
    {
      "mesh": 2,
      "name": "sym_7"
    },
    {
      "mesh": 3,
      "name": "sym_1"
    },
    {
      "mesh": 4,
      "name": "sym_67"
    },
    {
      "children": [
        18
      ],
      "name": "3833_dot_dat"
    },
    {
      "children": [
        19
      ],
      "matrix": [
        0.992646992,
        0.0,
        0.0,
        0.0,
        0.0,
        0.985293984,
        0.0,
        0.0,
        0.0,
        0.0,
        0.993589997,
        0.0,
        -20.0,
        -56.0367661,
        30.0160255,
        1.0
      ],
      "name": "Inner-Node-UntitledModel_dot_io-1"
    },
    {
      "mesh": 5,
      "name": "Base"
    },
    {
      "children": [
        21
      ],
      "name": "3626cpb0628_dot_dat"
    },
    {
      "children": [
        22,
        23,
        24
      ],
      "matrix": [
        0.990384996,
        0.0,
        0.0,
        0.0,
        0.0,
        0.991070986,
        0.0,
        0.0,
        0.0,
        0.0,
        0.990384996,
        0.0,
        -20.0,
        -55.9107132,
        30.0,
        1.0
      ],
      "name": "Inner-Node-UntitledModel_dot_io-2"
    },
    {
      "mesh": 6,
      "name": "Base"
    },
    {
      "mesh": 7,
      "name": "sym_11"
    },
    {
      "mesh": 8,
      "name": "sym_1"
    },
    {
      "children": [
        26
      ],
      "name": "3819_dot_dat"
    },
    {
      "children": [
        27
      ],
      "matrix": [
        0.97083801,
        -0.168161005,
        0.0,
        0.0,
        0.169195995,
        0.976814985,
        0.0,
        0.0,
        0.0,
        0.0,
        0.987464011,
        0.0,
        -4.49471807,
        -23.0602551,
        30.0434303,
        1.0
      ],
      "name": "Inner-Node-UntitledModel_dot_io-3"
    },
    {
      "mesh": 9,
      "name": "Base"
    },
    {
      "children": [
        29
      ],
      "name": "3818_dot_dat"
    },
    {
      "children": [
        30
      ],
      "matrix": [
        0.971002996,
        0.167208001,
        0.0,
        0.0,
        -0.168237001,
        0.976980984,
        0.0,
        0.0,
        0.0,
        0.0,
        0.987464011,
        0.0,
        -35.608036,
        -23.0287323,
        30.0434303,
        1.0
      ],
      "name": "Inner-Node-UntitledModel_dot_io-4"
    },
    {
      "mesh": 10,
      "name": "Base"
    },
    {
      "children": [
        32
      ],
      "name": "3820_dot_dat"
    },
    {
      "children": [
        33
      ],
      "matrix": [
        0.970812976,
        -0.0482290015,
        -0.118167996,
        0.0,
        -0.0482509993,
        0.70104897,
        -0.682528019,
        0.0,
        0.119623996,
        0.690623999,
        0.700908005,
        0.0,
        3.64403605,
        -5.27091122,
        40.0293732,
        1.0
      ],
      "name": "Inner-Node-UntitledModel_dot_io-5"
    },
    {
      "mesh": 11,
      "name": "Base"
    },
    {
      "children": [
        35
      ],
      "name": "3820_dot_dat"
    },
    {
      "children": [
        36
      ],
      "matrix": [
        0.970906973,
        0.0479630008,
        0.117498003,
        0.0,
        0.0479849987,
        0.70095402,
        -0.68264401,
        0.0,
        -0.118946001,
        0.690741003,
        0.700908005,
        0.0,
        -43.7292938,
        -5.23140383,
        39.5293808,
        1.0
      ],
      "name": "Inner-Node-UntitledModel_dot_io-6"
    },
    {
      "mesh": 12,
      "name": "Base"
    },
    {
      "children": [
        38
      ],
      "matrix": [
        1.0,
        0.0,
        0.0,
        0.0,
        0.0,
        1.0,
        0.0,
        0.0,
        0.0,
        0.0,
        1.0,
        0.0,
        -20.0,
        0.0,
        30.0,
        1.0
      ],
      "name": "3815c01_dot_dat"
    },
    {
      "children": [
        39,
        42,
        45
      ],
      "name": "3815c01_dot_dat"
    },
    {
      "children": [
        40
      ],
      "name": "3815_dot_dat"
    },
    {
      "children": [
        41
      ],
      "name": "Inner-Node-63-3815c01_dot_dat-0"
    },
    {
      "mesh": 13,
      "name": "Base"
    },
    {
      "children": [
        43
      ],
      "name": "3816_dot_dat"
    },
    {
      "children": [
        44
      ],
      "matrix": [
        1.0,
        0.0,
        0.0,
        0.0,
        0.0,
        1.0,
        0.0,
        0.0,
        0.0,
        0.0,
        1.0,
        0.0,
        0.0,
        12.0,
        0.0,
        1.0
      ],
      "name": "Inner-Node-63-3815c01_dot_dat-1"
    },
    {
      "mesh": 14,
      "name": "Base"
    },
    {
      "children": [
        46
      ],
      "name": "3817_dot_dat"
    },
    {
      "children": [
        47
      ],
      "matrix": [
        1.0,
        0.0,
        0.0,
        0.0,
        0.0,
        1.0,
        0.0,
        0.0,
        0.0,
        0.0,
        1.0,
        0.0,
        0.0,
        12.0,
        0.0,
        1.0
      ],
      "name": "Inner-Node-63-3815c01_dot_dat-2"
    },
    {
      "mesh": 15,
      "name": "Base"
    }
  ],
  "scene": 0,
  "scenes": [
    {
      "name": "Sketchfab_Scene",
      "nodes": [
        0
      ]
    }
  ]
}